<?xml version="1.0" standalone="no"?>
<!DOCTYPE svg PUBLIC "-//W3C//DTD SVG 20010904//EN"
 "http://www.w3.org/TR/2001/REC-SVG-20010904/DTD/svg10.dtd">
<svg version="1.0" xmlns="http://www.w3.org/2000/svg"
 width="540.000000pt" height="540.000000pt" viewBox="0 0 540.000000 540.000000"
 preserveAspectRatio="xMidYMid meet">

<g transform="translate(0.000000,540.000000) scale(0.100000,-0.100000)"
fill="#000000" stroke="none">
<path d="M1002 3627 c-15 -18 -64 -238 -87 -389 -4 -27 -20 -51 -64 -96 -94
-94 -168 -153 -234 -187 -72 -37 -83 -61 -41 -94 15 -11 33 -21 41 -21 33 0
127 55 189 111 36 33 68 59 70 56 4 -4 -40 -333 -56 -412 -5 -27 -21 -120 -35
-205 -14 -85 -32 -161 -40 -170 -7 -8 -18 -28 -24 -43 -9 -23 -8 -29 7 -35 17
-7 17 -11 1 -112 -10 -58 -21 -130 -24 -160 -3 -30 -12 -107 -20 -170 -17
-139 -25 -323 -15 -340 13 -21 37 -4 48 32 5 18 15 80 22 138 6 58 28 200 47
315 19 116 40 243 47 284 l11 74 66 56 c37 31 100 85 141 121 41 36 137 119
214 184 251 215 395 375 432 480 37 109 5 184 -101 236 -109 54 -255 48 -425
-16 -69 -26 -84 -25 -61 2 19 23 17 188 -2 269 -11 49 -20 63 -48 82 -39 27
-45 28 -59 10z m576 -437 c38 -17 42 -23 42 -54 0 -99 -142 -260 -515 -586
-66 -58 -142 -126 -170 -152 -27 -26 -51 -45 -54 -43 -4 5 8 85 39 265 10 58
28 173 40 255 12 83 26 167 31 188 10 37 11 38 29 22 10 -9 34 -18 52 -18 29
-2 33 1 31 20 -3 26 49 56 157 91 113 37 252 42 318 12z"/>
<path d="M4379 3103 c-45 -113 -64 -169 -84 -246 -37 -137 -316 -658 -405
-757 l-41 -45 6 55 c3 30 21 102 40 160 51 161 52 175 16 210 -44 44 -64 39
-109 -27 -22 -32 -49 -78 -62 -103 -13 -25 -54 -90 -92 -145 -42 -60 -67 -107
-64 -117 3 -13 -19 -38 -75 -85 -233 -198 -257 -213 -279 -174 -19 37 -12 155
16 243 34 108 79 230 110 295 24 51 25 53 97 74 103 30 145 48 151 65 10 27
-16 69 -86 136 -58 57 -76 68 -104 68 -33 0 -35 -3 -83 -98 -45 -91 -52 -99
-88 -110 -58 -18 -103 -49 -103 -72 0 -12 15 -30 40 -46 l39 -26 -16 -37 c-37
-84 -93 -261 -104 -329 -9 -56 -14 -69 -23 -58 -9 12 -31 5 -139 -50 -71 -35
-139 -64 -151 -64 -29 0 -52 26 -61 67 -7 35 31 259 46 269 5 3 9 16 9 29 0
13 4 26 9 30 5 3 17 31 26 62 26 89 50 129 87 143 70 28 144 63 161 78 29 26
21 59 -28 108 -99 98 -164 86 -229 -43 -28 -57 -46 -69 -139 -97 -63 -20 -90
-40 -85 -64 4 -22 67 -63 93 -61 11 1 23 1 27 0 6 -1 -76 -250 -84 -254 -2 -1
-53 -50 -114 -109 -61 -60 -118 -108 -127 -108 -19 0 -37 30 -47 77 -19 84 35
299 120 472 30 61 49 87 75 102 40 24 46 56 17 82 -24 22 -64 21 -137 -4 -33
-11 -80 -24 -105 -30 -25 -5 -52 -12 -61 -15 -13 -3 -18 5 -24 33 -9 48 -31
73 -65 73 -24 0 -30 -7 -49 -56 -11 -31 -30 -67 -41 -81 -18 -23 -18 -27 -4
-57 15 -30 14 -37 -19 -131 -72 -207 -131 -338 -186 -419 -18 -26 -38 -45 -44
-43 -7 2 -18 31 -26 65 -13 56 -13 70 3 140 10 42 22 100 27 127 6 28 37 103
69 168 33 65 60 130 60 145 -1 37 -24 65 -55 65 -35 0 -56 -23 -99 -108 l-35
-70 1 70 c0 92 -17 152 -54 186 -61 58 -122 47 -205 -39 -99 -102 -186 -235
-287 -441 -83 -168 -106 -239 -106 -324 0 -120 50 -181 159 -194 43 -5 56 -2
88 19 55 36 146 128 208 211 30 40 63 83 73 96 l19 24 5 -51 c5 -49 35 -119
66 -156 27 -30 99 -58 132 -51 69 15 155 170 244 435 75 225 82 240 109 240
12 0 46 7 75 14 28 8 52 12 52 9 0 -3 -22 -70 -50 -149 -97 -281 -90 -422 26
-510 30 -23 48 -29 89 -29 43 0 58 5 93 34 23 18 57 54 74 80 l33 46 6 -37 c3
-20 17 -55 32 -76 37 -56 86 -83 161 -89 53 -5 69 -2 113 20 57 29 142 99 158
130 18 37 32 30 38 -19 11 -104 119 -174 220 -144 31 9 68 38 145 114 57 55
121 124 143 152 22 29 48 54 59 57 10 3 27 19 38 36 22 36 32 31 32 -15 0 -53
28 -111 65 -134 51 -31 78 -26 117 23 50 61 128 181 175 267 47 87 84 150 88
150 1 0 -8 -55 -21 -122 -13 -68 -33 -187 -44 -264 -20 -136 -23 -145 -76
-240 -124 -225 -238 -582 -250 -784 -8 -127 1 -152 65 -171 50 -15 77 -8 132
34 44 34 120 154 131 207 3 14 17 75 31 135 20 84 30 169 42 357 18 283 25
330 54 367 11 14 30 42 40 61 37 67 262 299 376 388 25 19 45 39 45 44 0 5 17
25 38 45 l37 35 -30 -7 c-74 -16 -255 -156 -408 -314 -109 -113 -103 -115 -76
24 6 28 14 86 19 130 5 44 14 100 19 125 6 25 20 92 31 150 34 164 47 208 98
315 40 84 47 109 47 159 0 49 -4 61 -24 77 -35 28 -69 25 -82 -8z m-2734 -543
c9 -39 -3 -124 -21 -158 -8 -15 -14 -34 -14 -43 0 -9 -14 -32 -30 -49 -17 -18
-30 -40 -28 -49 5 -24 53 -37 88 -24 37 14 39 17 -59 -112 -142 -190 -299
-355 -336 -355 -21 0 -25 68 -10 144 17 81 128 317 220 464 53 87 157 212 175
212 5 0 11 -14 15 -30z m1830 9 c-4 -5 -13 -9 -22 -9 -13 0 -13 3 -3 15 13 15
35 11 25 -6z m604 -1074 c-9 -163 -33 -304 -71 -420 -28 -87 -88 -195 -108
-195 -13 0 -13 86 -1 142 24 113 66 280 85 338 11 36 21 70 21 75 0 6 3 15 6
20 4 6 9 22 12 36 8 32 57 143 61 138 2 -2 0 -62 -5 -134z"/>
</g>
</svg>
